<svg width="51" height="56" viewBox="0 0 51 56" fill="none" xmlns="http://www.w3.org/2000/svg">
<path d="M50.02 29.96C49.46 32.5733 48.4333 35.0933 46.94 37.52C45.54 39.8533 43.9067 42.0467 42.04 44.1C40.1733 46.1533 38.12 47.9267 35.88 49.42C33.7333 50.9133 31.54 52.08 29.3 52.92C25.1933 54.4133 21.0867 54.9267 16.98 54.46C12.9667 53.9 9.37333 52.0333 6.2 48.86C4.05333 46.2467 2.51333 43.3067 1.58 40.04C0.74 36.7733 0.32 33.46 0.32 30.1C0.413334 26.6467 0.88 23.3333 1.72 20.16C2.65333 16.9867 3.82 14.14 5.22 11.62C6.9 8.63333 8.90667 6.16 11.24 4.19999C13.5733 2.24 16.14 1.07333 18.94 0.699998C19.6867 0.513328 20.2933 0.699995 20.76 1.26C21.2267 1.82 21.46 2.47333 21.46 3.22C22.3933 2.28667 23.84 1.58666 25.8 1.11999C27.76 0.653326 29.9533 0.60666 32.38 0.979994C36.86 1.54 40.4067 2.89333 43.02 5.04C45.6333 7.18666 47.5467 9.70666 48.76 12.6C50.0667 15.4 50.72 18.3867 50.72 21.56C50.8133 24.64 50.58 27.44 50.02 29.96ZM19.5 10.64C17.6333 11.48 16.0467 12.74 14.74 14.42C13.5267 16.0067 12.5 17.8267 11.66 19.88C10.9133 21.9333 10.4 24.1733 10.12 26.6C9.93333 28.9333 9.93333 31.22 10.12 33.46C10.4 36.7267 11.38 39.4333 13.06 41.58C14.74 43.6333 17.3533 44.66 20.9 44.66C22.9533 44.66 24.96 44.2867 26.92 43.54C28.9733 42.7 30.84 41.6267 32.52 40.32C34.2 39.0133 35.74 37.4733 37.14 35.7C38.54 33.8333 39.66 31.92 40.5 29.96C40.9667 28.9333 41.34 27.6733 41.62 26.18C41.9 24.5933 41.9933 23.0067 41.9 21.42C41.8067 19.74 41.4333 18.1533 40.78 16.66C40.1267 15.1667 39.1 13.9067 37.7 12.88C35.74 11.48 33.4067 10.64 30.7 10.36C27.9933 10.08 25.1467 10.6867 22.16 12.18C21.6 12.5533 20.9467 12.6467 20.2 12.46C19.5467 12.18 19.3133 11.5733 19.5 10.64Z" fill="black"/>
</svg>
