<svg width="53" height="72" viewBox="0 0 53 72" fill="none" xmlns="http://www.w3.org/2000/svg">
<path d="M4.03125 70.8438L0 68.7812C1.625 64.9688 3.46875 61.25 5.53125 57.625C7.65625 53.9375 10.5312 49.3125 14.1562 43.75C17.8438 38.125 20.125 34.625 21 33.25C19.4375 30.8125 16.2188 26.125 11.3438 19.1875C6.53125 12.1875 2.9375 6.71875 0.5625 2.78125L4.5 1C9.8125 7.1875 16.4688 16.0938 24.4688 27.7188C24.7812 26.5312 27.5 22.375 32.625 15.25C37.8125 8.125 40.7812 3.90625 41.5312 2.59375C42.4688 1.03125 43.5938 0.25 44.9062 0.25C46.1562 0.25 47.2812 0.8125 48.2812 1.9375C49.2812 3 49.8125 4.25 49.875 5.6875C49.5 6.125 46.25 10.5938 40.125 19.0938C34.0625 27.5938 30.2812 32.7188 28.7812 34.4688C30.9062 37.7812 34.9688 43.5312 40.9688 51.7188C46.9688 59.8438 50.75 65.25 52.3125 67.9375C52.3125 69.125 52 70.0312 51.375 70.6562C50.8125 71.2812 50.0625 71.5938 49.125 71.5938C47 71.5938 45.375 70.5625 44.25 68.5L25.0312 39.8125C23.0938 42.9375 19.6875 47.9375 14.8125 54.8125C9.9375 61.6875 6.34375 67.0312 4.03125 70.8438Z" fill="black"/>
</svg>
